<?xml version="1.0" encoding="UTF-8" standalone="no"?>
<!-- Uploaded to: SVG Repo, www.svgrepo.com, Generator: SVG Repo Mixer Tools -->

<svg
   version="1.1"
   id="Layer_1"
   viewBox="0 0 512.001 512.001"
   xml:space="preserve"
   sodipodi:docname="hydrangea.svg"
   inkscape:version="1.4 (86a8ad7, 2024-10-11)"
   xmlns:inkscape="http://www.inkscape.org/namespaces/inkscape"
   xmlns:sodipodi="http://sodipodi.sourceforge.net/DTD/sodipodi-0.dtd"
   xmlns="http://www.w3.org/2000/svg"
   xmlns:svg="http://www.w3.org/2000/svg"><defs
   id="defs6" /><sodipodi:namedview
   id="namedview6"
   pagecolor="#ffffff"
   bordercolor="#000000"
   borderopacity="0.25"
   inkscape:showpageshadow="2"
   inkscape:pageopacity="0.0"
   inkscape:pagecheckerboard="0"
   inkscape:deskcolor="#d1d1d1"
   inkscape:zoom="1.6365624"
   inkscape:cx="225.1671"
   inkscape:cy="219.66777"
   inkscape:window-width="2560"
   inkscape:window-height="1387"
   inkscape:window-x="1072"
   inkscape:window-y="506"
   inkscape:window-maximized="1"
   inkscape:current-layer="Layer_1" />
<path
   style="fill:#78a5ff;stroke-width:0.432983"
   d="m 362.09718,237.2909 c -12.73487,-18.25497 -27.41429,-27.12722 -44.87646,-27.12722 -17.83367,0 -28.91195,12.24345 -37.00136,21.18236 -4.70088,5.19363 -9.14069,10.10062 -12.70457,10.10062 -0.32864,0 -0.62176,0.10917 -0.92614,0.18704 0.0779,-0.30438 0.18704,-0.59752 0.18704,-0.92615 0,-3.56604 4.90656,-8.00541 10.10061,-12.70283 8.93892,-8.09157 21.18236,-19.16986 21.18236,-37.00353 0,-17.46347 -8.87354,-32.14158 -27.12503,-44.87472 -9.07143,-6.325 -20.79268,-6.325 -29.86756,0 -18.25193,12.73271 -27.12547,27.41125 -27.12547,44.87472 0,17.83367 12.24343,28.91196 21.18236,37.00353 5.19361,4.69742 10.10018,9.13679 10.10018,12.70283 0,0.32863 0.10904,0.62177 0.18704,0.92615 -0.30438,-0.0779 -0.59751,-0.18704 -0.92614,-0.18704 -3.56389,0 -8.00369,-4.90655 -12.70458,-10.10062 -8.08983,-8.93891 -19.16812,-21.18236 -37.00137,-21.18236 -17.46174,0 -32.14157,8.87182 -44.87644,27.12722 -6.32717,9.0701 -6.32717,20.7944 0,29.86409 12.73487,18.25496 27.41427,27.1272 44.87644,27.1272 17.83368,0 28.91197,-12.24344 37.00137,-21.18236 4.70089,-5.19363 9.14069,-10.10061 12.70458,-10.10061 0.32863,0 0.62176,-0.10917 0.92614,-0.18705 -0.0779,0.30438 -0.18704,0.59752 -0.18704,0.92615 0,3.56604 -4.90657,8.00541 -10.10018,12.70283 -8.93893,8.09157 -21.18236,19.16986 -21.18236,37.00354 0,17.45956 8.8718,32.1381 27.12547,44.87471 4.53679,3.1625 9.73431,4.74592 14.93399,4.74592 5.19969,0 10.3972,-1.58342 14.934,-4.74592 18.25322,-12.73617 27.12503,-27.41427 27.12503,-44.87471 0,-17.83368 -12.24344,-28.91197 -21.18236,-37.00354 -5.19362,-4.69742 -10.10061,-9.13679 -10.10061,-12.70283 0,-0.32863 -0.10905,-0.62177 -0.18704,-0.92615 0.30438,0.0779 0.59752,0.18705 0.92615,0.18705 3.56387,0 8.00368,4.90655 12.70456,10.10061 8.08984,8.93892 19.16812,21.18236 37.00136,21.18236 17.46174,0 32.14159,-8.87224 44.87646,-27.1272 6.3263,-9.06969 6.3263,-20.79485 -4.3e-4,-29.86409 z"
   id="path1" />
<path
   style="fill:#6993f2;stroke-width:0.432983"
   d="m 237.6087,274.17059 c 4.9793,4.16832 11.3883,6.68395 18.39049,6.68395 7.00219,0 13.4112,-2.51606 18.39049,-6.68395 -4.16572,-3.84749 -7.61399,-7.44773 -7.61399,-10.4327 0,-0.32863 -0.10917,-0.62177 -0.18704,-0.92615 0.30438,0.0779 0.5975,0.18704 0.92614,0.18704 2.98325,0 6.58436,3.44871 10.43487,7.61617 4.19257,-4.9858 6.72638,-11.41299 6.72638,-18.43726 0,-7.00219 -2.51649,-13.41206 -6.68567,-18.39136 -3.86611,4.18694 -7.48195,7.65989 -10.47558,7.65989 -0.32864,0 -0.62176,0.10917 -0.92614,0.18705 0.0779,-0.30438 0.18704,-0.59752 0.18704,-0.92615 0,-2.99623 3.47469,-6.61293 7.66292,-10.4773 -4.98623,-4.19343 -11.41385,-6.72855 -18.43899,-6.72855 -7.02514,0 -13.45276,2.53512 -18.43898,6.72855 4.18824,3.8648 7.66293,7.48107 7.66293,10.4773 0,0.32863 0.10917,0.62177 0.18704,0.92615 -0.30438,-0.0779 -0.59751,-0.18705 -0.92614,-0.18705 -2.99451,0 -6.60992,-3.47338 -10.47558,-7.65989 -4.16918,4.9793 -6.68568,11.3896 -6.68568,18.39136 0,7.02427 2.53424,13.45146 6.72638,18.43726 3.85051,-4.16703 7.4512,-7.61617 10.43488,-7.61617 0.32863,0 0.62176,-0.10917 0.92614,-0.18704 -0.0779,0.30438 -0.18704,0.59752 -0.18704,0.92615 -6.8e-4,2.98454 -3.44871,6.58521 -7.61487,10.4327 z"
   id="path2" />
<g
   id="g3"
   transform="matrix(0.43298228,0,0,0.43298228,145.15486,141.38012)">
	<circle
   style="fill:#5a82e6"
   cx="256.005"
   cy="255.89301"
   r="26.492001"
   id="circle2" />
	<rect
   x="185.35899"
   y="247.062"
   style="fill:#5a82e6"
   width="141.29201"
   height="17.660999"
   id="rect2" />
	<rect
   x="247.174"
   y="185.24699"
   style="fill:#5a82e6"
   width="17.660999"
   height="141.29201"
   id="rect3" />
</g>
<g
   id="g6"
   transform="matrix(0.43298228,0,0,0.43298228,145.15486,141.38012)">
	<circle
   style="fill:#bedcff"
   cx="185.35899"
   cy="255.89301"
   r="17.660999"
   id="circle3" />
	<circle
   style="fill:#bedcff"
   cx="326.651"
   cy="255.89301"
   r="17.660999"
   id="circle4" />
	<circle
   style="fill:#bedcff"
   cx="256.005"
   cy="326.539"
   r="17.660999"
   id="circle5" />
	<circle
   style="fill:#bedcff"
   cx="256.005"
   cy="185.24699"
   r="17.660999"
   id="circle6" />
</g>
</svg>
